<mxfile host="app.diagrams.net" modified="2023-09-04T15:36:44.256Z" agent="Mozilla/5.0 (Windows NT 10.0; Win64; x64) AppleWebKit/537.36 (KHTML, like Gecko) Chrome/117.0.0.0 Safari/537.36 Edg/117.0.0.0" etag="K1NVvRb5EmqxDbOWooL0" version="21.7.2" type="device">
  <diagram name="Page-1" id="e7e014a7-5840-1c2e-5031-d8a46d1fe8dd">
    <mxGraphModel dx="1593" dy="1827" grid="1" gridSize="10" guides="1" tooltips="1" connect="1" arrows="1" fold="1" page="1" pageScale="1" pageWidth="827" pageHeight="1169" background="none" math="0" shadow="0">
      <root>
        <mxCell id="0" />
        <mxCell id="1" parent="0" />
        <mxCell id="RjY1EiUsMFYyaQ78bKSz-43" value="Age input" style="shape=parallelogram;perimeter=parallelogramPerimeter;whiteSpace=wrap;html=1;fixedSize=1;sketch=1;hachureGap=4;jiggle=2;curveFitting=1;fontFamily=Architects Daughter;fontSource=https%3A%2F%2Ffonts.googleapis.com%2Fcss%3Ffamily%3DArchitects%2BDaughter;fontSize=20;" vertex="1" parent="1">
          <mxGeometry x="1150.6672760511883" y="182.05660377358492" width="110" height="40" as="geometry" />
        </mxCell>
        <mxCell id="RjY1EiUsMFYyaQ78bKSz-86" style="edgeStyle=none;curved=1;rounded=0;sketch=1;hachureGap=4;jiggle=2;curveFitting=1;orthogonalLoop=1;jettySize=auto;html=1;fontFamily=Architects Daughter;fontSource=https%3A%2F%2Ffonts.googleapis.com%2Fcss%3Ffamily%3DArchitects%2BDaughter;fontSize=16;startSize=8;endSize=8;" edge="1" parent="1" source="RjY1EiUsMFYyaQ78bKSz-78" target="RjY1EiUsMFYyaQ78bKSz-43">
          <mxGeometry relative="1" as="geometry" />
        </mxCell>
        <mxCell id="RjY1EiUsMFYyaQ78bKSz-78" value="Start" style="ellipse;whiteSpace=wrap;html=1;fontSize=20;fontFamily=Architects Daughter;sketch=1;hachureGap=4;jiggle=2;curveFitting=1;fontSource=https%3A%2F%2Ffonts.googleapis.com%2Fcss%3Ffamily%3DArchitects%2BDaughter;" vertex="1" parent="1">
          <mxGeometry x="1175.7312614259597" y="90" width="60.25594149908592" height="60.37735849056604" as="geometry" />
        </mxCell>
        <mxCell id="RjY1EiUsMFYyaQ78bKSz-82" value="Height input" style="shape=parallelogram;perimeter=parallelogramPerimeter;whiteSpace=wrap;html=1;fixedSize=1;sketch=1;hachureGap=4;jiggle=2;curveFitting=1;fontFamily=Architects Daughter;fontSource=https%3A%2F%2Ffonts.googleapis.com%2Fcss%3Ffamily%3DArchitects%2BDaughter;fontSize=20;" vertex="1" parent="1">
          <mxGeometry x="1140.6672760511883" y="257.52830188679246" width="130" height="40" as="geometry" />
        </mxCell>
        <mxCell id="RjY1EiUsMFYyaQ78bKSz-83" value="" style="edgeStyle=none;curved=1;rounded=0;sketch=1;hachureGap=4;jiggle=2;curveFitting=1;orthogonalLoop=1;jettySize=auto;html=1;fontFamily=Architects Daughter;fontSource=https%3A%2F%2Ffonts.googleapis.com%2Fcss%3Ffamily%3DArchitects%2BDaughter;fontSize=16;startSize=8;endSize=8;" edge="1" parent="1" source="RjY1EiUsMFYyaQ78bKSz-43" target="RjY1EiUsMFYyaQ78bKSz-82">
          <mxGeometry relative="1" as="geometry" />
        </mxCell>
        <mxCell id="RjY1EiUsMFYyaQ78bKSz-84" value="Weight input" style="shape=parallelogram;perimeter=parallelogramPerimeter;whiteSpace=wrap;html=1;fixedSize=1;sketch=1;hachureGap=4;jiggle=2;curveFitting=1;fontFamily=Architects Daughter;fontSource=https%3A%2F%2Ffonts.googleapis.com%2Fcss%3Ffamily%3DArchitects%2BDaughter;fontSize=20;" vertex="1" parent="1">
          <mxGeometry x="1140.6672760511883" y="327.7169811320755" width="130" height="40" as="geometry" />
        </mxCell>
        <mxCell id="RjY1EiUsMFYyaQ78bKSz-85" value="" style="edgeStyle=none;curved=1;rounded=0;sketch=1;hachureGap=4;jiggle=2;curveFitting=1;orthogonalLoop=1;jettySize=auto;html=1;fontFamily=Architects Daughter;fontSource=https%3A%2F%2Ffonts.googleapis.com%2Fcss%3Ffamily%3DArchitects%2BDaughter;fontSize=16;startSize=8;endSize=8;" edge="1" parent="1" source="RjY1EiUsMFYyaQ78bKSz-82" target="RjY1EiUsMFYyaQ78bKSz-84">
          <mxGeometry relative="1" as="geometry" />
        </mxCell>
        <mxCell id="RjY1EiUsMFYyaQ78bKSz-87" value="BMI calculation&amp;nbsp;" style="whiteSpace=wrap;html=1;fontSize=20;fontFamily=Architects Daughter;sketch=1;hachureGap=4;jiggle=2;curveFitting=1;fontSource=https%3A%2F%2Ffonts.googleapis.com%2Fcss%3Ffamily%3DArchitects%2BDaughter;" vertex="1" parent="1">
          <mxGeometry x="1120.6672760511883" y="397.9056603773585" width="170" height="40" as="geometry" />
        </mxCell>
        <mxCell id="RjY1EiUsMFYyaQ78bKSz-88" value="" style="edgeStyle=none;curved=1;rounded=0;sketch=1;hachureGap=4;jiggle=2;curveFitting=1;orthogonalLoop=1;jettySize=auto;html=1;fontFamily=Architects Daughter;fontSource=https%3A%2F%2Ffonts.googleapis.com%2Fcss%3Ffamily%3DArchitects%2BDaughter;fontSize=16;startSize=8;endSize=8;" edge="1" parent="1" source="RjY1EiUsMFYyaQ78bKSz-84" target="RjY1EiUsMFYyaQ78bKSz-87">
          <mxGeometry relative="1" as="geometry" />
        </mxCell>
        <mxCell id="RjY1EiUsMFYyaQ78bKSz-98" value="" style="edgeStyle=none;curved=1;rounded=0;sketch=1;hachureGap=4;jiggle=2;curveFitting=1;orthogonalLoop=1;jettySize=auto;html=1;fontFamily=Architects Daughter;fontSource=https%3A%2F%2Ffonts.googleapis.com%2Fcss%3Ffamily%3DArchitects%2BDaughter;fontSize=11;startSize=8;endSize=8;" edge="1" parent="1" target="RjY1EiUsMFYyaQ78bKSz-97">
          <mxGeometry relative="1" as="geometry">
            <mxPoint x="937.7100822955053" y="532.1862395970647" as="sourcePoint" />
          </mxGeometry>
        </mxCell>
        <mxCell id="RjY1EiUsMFYyaQ78bKSz-106" value="" style="edgeStyle=none;curved=1;rounded=0;sketch=1;hachureGap=4;jiggle=2;curveFitting=1;orthogonalLoop=1;jettySize=auto;html=1;fontFamily=Architects Daughter;fontSource=https%3A%2F%2Ffonts.googleapis.com%2Fcss%3Ffamily%3DArchitects%2BDaughter;fontSize=11;startSize=8;endSize=8;" edge="1" parent="1" target="RjY1EiUsMFYyaQ78bKSz-105">
          <mxGeometry relative="1" as="geometry">
            <mxPoint x="953.9977655900872" y="547.0230607966458" as="sourcePoint" />
          </mxGeometry>
        </mxCell>
        <mxCell id="RjY1EiUsMFYyaQ78bKSz-107" value="" style="edgeStyle=none;curved=1;rounded=0;sketch=1;hachureGap=4;jiggle=2;curveFitting=1;orthogonalLoop=1;jettySize=auto;html=1;fontFamily=Architects Daughter;fontSource=https%3A%2F%2Ffonts.googleapis.com%2Fcss%3Ffamily%3DArchitects%2BDaughter;fontSize=11;startSize=8;endSize=8;" edge="1" parent="1" target="RjY1EiUsMFYyaQ78bKSz-105">
          <mxGeometry relative="1" as="geometry">
            <mxPoint x="953.9977655900872" y="547.0230607966458" as="sourcePoint" />
          </mxGeometry>
        </mxCell>
        <mxCell id="RjY1EiUsMFYyaQ78bKSz-108" value="" style="edgeStyle=none;curved=1;rounded=0;sketch=1;hachureGap=4;jiggle=2;curveFitting=1;orthogonalLoop=1;jettySize=auto;html=1;fontFamily=Architects Daughter;fontSource=https%3A%2F%2Ffonts.googleapis.com%2Fcss%3Ffamily%3DArchitects%2BDaughter;fontSize=11;startSize=8;endSize=8;" edge="1" parent="1" target="RjY1EiUsMFYyaQ78bKSz-105">
          <mxGeometry relative="1" as="geometry">
            <mxPoint x="953.9977655900872" y="547.0230607966458" as="sourcePoint" />
          </mxGeometry>
        </mxCell>
        <mxCell id="RjY1EiUsMFYyaQ78bKSz-111" value="" style="edgeStyle=none;curved=1;rounded=0;sketch=1;hachureGap=4;jiggle=2;curveFitting=1;orthogonalLoop=1;jettySize=auto;html=1;fontFamily=Architects Daughter;fontSource=https%3A%2F%2Ffonts.googleapis.com%2Fcss%3Ffamily%3DArchitects%2BDaughter;fontSize=11;startSize=8;endSize=8;" edge="1" parent="1" target="RjY1EiUsMFYyaQ78bKSz-110">
          <mxGeometry relative="1" as="geometry">
            <mxPoint x="975.55864524199" y="556.7328699106258" as="sourcePoint" />
          </mxGeometry>
        </mxCell>
        <mxCell id="RjY1EiUsMFYyaQ78bKSz-112" value="" style="edgeStyle=none;curved=1;rounded=0;sketch=1;hachureGap=4;jiggle=2;curveFitting=1;orthogonalLoop=1;jettySize=auto;html=1;fontFamily=Architects Daughter;fontSource=https%3A%2F%2Ffonts.googleapis.com%2Fcss%3Ffamily%3DArchitects%2BDaughter;fontSize=11;startSize=8;endSize=8;" edge="1" parent="1" target="RjY1EiUsMFYyaQ78bKSz-110">
          <mxGeometry relative="1" as="geometry">
            <mxPoint x="975.55864524199" y="556.7328699106258" as="sourcePoint" />
          </mxGeometry>
        </mxCell>
        <mxCell id="RjY1EiUsMFYyaQ78bKSz-113" value="" style="edgeStyle=none;curved=1;rounded=0;sketch=1;hachureGap=4;jiggle=2;curveFitting=1;orthogonalLoop=1;jettySize=auto;html=1;fontFamily=Architects Daughter;fontSource=https%3A%2F%2Ffonts.googleapis.com%2Fcss%3Ffamily%3DArchitects%2BDaughter;fontSize=11;startSize=8;endSize=8;" edge="1" parent="1" target="RjY1EiUsMFYyaQ78bKSz-110">
          <mxGeometry relative="1" as="geometry">
            <mxPoint x="975.55864524199" y="556.7328699106258" as="sourcePoint" />
          </mxGeometry>
        </mxCell>
        <mxCell id="RjY1EiUsMFYyaQ78bKSz-115" value="" style="edgeStyle=none;curved=1;rounded=0;sketch=1;hachureGap=4;jiggle=2;curveFitting=1;orthogonalLoop=1;jettySize=auto;html=1;fontFamily=Architects Daughter;fontSource=https%3A%2F%2Ffonts.googleapis.com%2Fcss%3Ffamily%3DArchitects%2BDaughter;fontSize=11;startSize=8;endSize=8;" edge="1" parent="1" target="RjY1EiUsMFYyaQ78bKSz-114">
          <mxGeometry relative="1" as="geometry">
            <mxPoint x="994.6202632973834" y="539.369208440326" as="sourcePoint" />
          </mxGeometry>
        </mxCell>
        <mxCell id="RjY1EiUsMFYyaQ78bKSz-89" value="Age &amp;lt; 65" style="rhombus;whiteSpace=wrap;html=1;fontSize=11;fontFamily=Architects Daughter;sketch=1;hachureGap=4;jiggle=2;curveFitting=1;fontSource=https%3A%2F%2Ffonts.googleapis.com%2Fcss%3Ffamily%3DArchitects%2BDaughter;" vertex="1" parent="1">
          <mxGeometry x="930.1882998171847" y="486.98113207547175" width="82.85191956124314" height="75.47169811320755" as="geometry" />
        </mxCell>
        <mxCell id="RjY1EiUsMFYyaQ78bKSz-90" value="" style="edgeStyle=none;curved=1;rounded=0;sketch=1;hachureGap=4;jiggle=2;curveFitting=1;orthogonalLoop=1;jettySize=auto;html=1;fontFamily=Architects Daughter;fontSource=https%3A%2F%2Ffonts.googleapis.com%2Fcss%3Ffamily%3DArchitects%2BDaughter;fontSize=16;startSize=8;endSize=8;" edge="1" parent="1" source="RjY1EiUsMFYyaQ78bKSz-87" target="RjY1EiUsMFYyaQ78bKSz-89">
          <mxGeometry relative="1" as="geometry" />
        </mxCell>
        <mxCell id="RjY1EiUsMFYyaQ78bKSz-91" value="Age 65-75" style="rhombus;whiteSpace=wrap;html=1;fontSize=11;fontFamily=Architects Daughter;sketch=1;hachureGap=4;jiggle=2;curveFitting=1;fontSource=https%3A%2F%2Ffonts.googleapis.com%2Fcss%3Ffamily%3DArchitects%2BDaughter;" vertex="1" parent="1">
          <mxGeometry x="1168.1992687385741" y="490.00000000000006" width="82.85191956124314" height="75.47169811320755" as="geometry" />
        </mxCell>
        <mxCell id="RjY1EiUsMFYyaQ78bKSz-92" value="" style="edgeStyle=none;curved=1;rounded=0;sketch=1;hachureGap=4;jiggle=2;curveFitting=1;orthogonalLoop=1;jettySize=auto;html=1;fontFamily=Architects Daughter;fontSource=https%3A%2F%2Ffonts.googleapis.com%2Fcss%3Ffamily%3DArchitects%2BDaughter;fontSize=16;startSize=8;endSize=8;" edge="1" parent="1" source="RjY1EiUsMFYyaQ78bKSz-87" target="RjY1EiUsMFYyaQ78bKSz-91">
          <mxGeometry relative="1" as="geometry" />
        </mxCell>
        <mxCell id="RjY1EiUsMFYyaQ78bKSz-93" value="" style="edgeStyle=none;curved=1;rounded=0;sketch=1;hachureGap=4;jiggle=2;curveFitting=1;orthogonalLoop=1;jettySize=auto;html=1;fontFamily=Architects Daughter;fontSource=https%3A%2F%2Ffonts.googleapis.com%2Fcss%3Ffamily%3DArchitects%2BDaughter;fontSize=16;startSize=8;endSize=8;" edge="1" parent="1" source="RjY1EiUsMFYyaQ78bKSz-87" target="RjY1EiUsMFYyaQ78bKSz-91">
          <mxGeometry relative="1" as="geometry" />
        </mxCell>
        <mxCell id="RjY1EiUsMFYyaQ78bKSz-94" value="" style="edgeStyle=none;curved=1;rounded=0;sketch=1;hachureGap=4;jiggle=2;curveFitting=1;orthogonalLoop=1;jettySize=auto;html=1;fontFamily=Architects Daughter;fontSource=https%3A%2F%2Ffonts.googleapis.com%2Fcss%3Ffamily%3DArchitects%2BDaughter;fontSize=16;startSize=8;endSize=8;" edge="1" parent="1" source="RjY1EiUsMFYyaQ78bKSz-87" target="RjY1EiUsMFYyaQ78bKSz-91">
          <mxGeometry relative="1" as="geometry" />
        </mxCell>
        <mxCell id="RjY1EiUsMFYyaQ78bKSz-95" value="Age &amp;gt; 75" style="rhombus;whiteSpace=wrap;html=1;fontSize=11;fontFamily=Architects Daughter;sketch=1;hachureGap=4;jiggle=2;curveFitting=1;fontSource=https%3A%2F%2Ffonts.googleapis.com%2Fcss%3Ffamily%3DArchitects%2BDaughter;" vertex="1" parent="1">
          <mxGeometry x="1485.2961608775136" y="486.22641509433964" width="82.85191956124314" height="75.47169811320755" as="geometry" />
        </mxCell>
        <mxCell id="RjY1EiUsMFYyaQ78bKSz-96" value="" style="edgeStyle=none;curved=1;rounded=0;sketch=1;hachureGap=4;jiggle=2;curveFitting=1;orthogonalLoop=1;jettySize=auto;html=1;fontFamily=Architects Daughter;fontSource=https%3A%2F%2Ffonts.googleapis.com%2Fcss%3Ffamily%3DArchitects%2BDaughter;fontSize=16;startSize=8;endSize=8;" edge="1" parent="1" source="RjY1EiUsMFYyaQ78bKSz-87" target="RjY1EiUsMFYyaQ78bKSz-95">
          <mxGeometry relative="1" as="geometry" />
        </mxCell>
        <mxCell id="RjY1EiUsMFYyaQ78bKSz-97" value="BMI &amp;lt; 18.5" style="rhombus;whiteSpace=wrap;html=1;fontSize=11;fontFamily=Architects Daughter;sketch=1;hachureGap=4;jiggle=2;curveFitting=1;fontSource=https%3A%2F%2Ffonts.googleapis.com%2Fcss%3Ffamily%3DArchitects%2BDaughter;" vertex="1" parent="1">
          <mxGeometry x="827" y="522.4528301886793" width="67.78793418647166" height="73.9622641509434" as="geometry" />
        </mxCell>
        <mxCell id="RjY1EiUsMFYyaQ78bKSz-101" value="Underweight" style="rounded=1;whiteSpace=wrap;html=1;sketch=1;hachureGap=4;jiggle=2;curveFitting=1;fontFamily=Architects Daughter;fontSource=https%3A%2F%2Ffonts.googleapis.com%2Fcss%3Ffamily%3DArchitects%2BDaughter;fontSize=20;" vertex="1" parent="1">
          <mxGeometry x="1145.1992687385741" y="806.9811320754718" width="117" height="45.28301886792453" as="geometry" />
        </mxCell>
        <mxCell id="RjY1EiUsMFYyaQ78bKSz-154" style="edgeStyle=none;rounded=1;sketch=1;hachureGap=4;jiggle=2;curveFitting=1;orthogonalLoop=1;jettySize=auto;html=1;fontFamily=Architects Daughter;fontSource=https%3A%2F%2Ffonts.googleapis.com%2Fcss%3Ffamily%3DArchitects%2BDaughter;fontSize=16;startSize=8;endSize=8;entryX=0;entryY=0.5;entryDx=0;entryDy=0;" edge="1" parent="1" source="RjY1EiUsMFYyaQ78bKSz-97" target="RjY1EiUsMFYyaQ78bKSz-101">
          <mxGeometry relative="1" as="geometry">
            <mxPoint x="866.9195612431445" y="784.3396226415094" as="targetPoint" />
            <Array as="points">
              <mxPoint x="859.3875685557587" y="822.0754716981132" />
            </Array>
          </mxGeometry>
        </mxCell>
        <mxCell id="RjY1EiUsMFYyaQ78bKSz-102" value="The weight is normal" style="rounded=1;whiteSpace=wrap;html=1;sketch=1;hachureGap=4;jiggle=2;curveFitting=1;fontFamily=Architects Daughter;fontSource=https%3A%2F%2Ffonts.googleapis.com%2Fcss%3Ffamily%3DArchitects%2BDaughter;fontSize=20;" vertex="1" parent="1">
          <mxGeometry x="1140.6800731261426" y="871.1320754716982" width="117" height="45.28301886792453" as="geometry" />
        </mxCell>
        <mxCell id="RjY1EiUsMFYyaQ78bKSz-103" value="Obesity" style="rounded=1;whiteSpace=wrap;html=1;sketch=1;hachureGap=4;jiggle=2;curveFitting=1;fontFamily=Architects Daughter;fontSource=https%3A%2F%2Ffonts.googleapis.com%2Fcss%3Ffamily%3DArchitects%2BDaughter;fontSize=20;" vertex="1" parent="1">
          <mxGeometry x="1140.6800731261426" y="1004.7169811320755" width="117" height="45.28301886792453" as="geometry" />
        </mxCell>
        <mxCell id="RjY1EiUsMFYyaQ78bKSz-104" value="Overweight" style="rounded=1;whiteSpace=wrap;html=1;sketch=1;hachureGap=4;jiggle=2;curveFitting=1;fontFamily=Architects Daughter;fontSource=https%3A%2F%2Ffonts.googleapis.com%2Fcss%3Ffamily%3DArchitects%2BDaughter;fontSize=20;" vertex="1" parent="1">
          <mxGeometry x="1142.1864716636196" y="936.0377358490566" width="117" height="45.28301886792453" as="geometry" />
        </mxCell>
        <mxCell id="RjY1EiUsMFYyaQ78bKSz-143" style="edgeStyle=none;rounded=1;sketch=1;hachureGap=4;jiggle=2;curveFitting=1;orthogonalLoop=1;jettySize=auto;html=1;entryX=0;entryY=0.5;entryDx=0;entryDy=0;fontFamily=Architects Daughter;fontSource=https%3A%2F%2Ffonts.googleapis.com%2Fcss%3Ffamily%3DArchitects%2BDaughter;fontSize=16;startSize=8;endSize=8;" edge="1" parent="1" source="RjY1EiUsMFYyaQ78bKSz-105" target="RjY1EiUsMFYyaQ78bKSz-102">
          <mxGeometry relative="1" as="geometry">
            <Array as="points">
              <mxPoint x="915.8775137111518" y="890.0000000000001" />
            </Array>
          </mxGeometry>
        </mxCell>
        <mxCell id="RjY1EiUsMFYyaQ78bKSz-105" value="BMI 18.5-24.9" style="rhombus;whiteSpace=wrap;html=1;fontSize=11;fontFamily=Architects Daughter;sketch=1;hachureGap=4;jiggle=2;curveFitting=1;fontSource=https%3A%2F%2Ffonts.googleapis.com%2Fcss%3Ffamily%3DArchitects%2BDaughter;" vertex="1" parent="1">
          <mxGeometry x="881.9835466179159" y="576.7924528301887" width="67.78793418647166" height="73.9622641509434" as="geometry" />
        </mxCell>
        <mxCell id="RjY1EiUsMFYyaQ78bKSz-144" style="edgeStyle=none;rounded=1;sketch=1;hachureGap=4;jiggle=2;curveFitting=1;orthogonalLoop=1;jettySize=auto;html=1;entryX=0;entryY=0.5;entryDx=0;entryDy=0;fontFamily=Architects Daughter;fontSource=https%3A%2F%2Ffonts.googleapis.com%2Fcss%3Ffamily%3DArchitects%2BDaughter;fontSize=16;startSize=8;endSize=8;" edge="1" parent="1" source="RjY1EiUsMFYyaQ78bKSz-110" target="RjY1EiUsMFYyaQ78bKSz-104">
          <mxGeometry relative="1" as="geometry">
            <Array as="points">
              <mxPoint x="979.8994515539305" y="957.9245283018869" />
            </Array>
          </mxGeometry>
        </mxCell>
        <mxCell id="RjY1EiUsMFYyaQ78bKSz-110" value="BMI 25-29.9" style="rhombus;whiteSpace=wrap;html=1;fontSize=11;fontFamily=Architects Daughter;sketch=1;hachureGap=4;jiggle=2;curveFitting=1;fontSource=https%3A%2F%2Ffonts.googleapis.com%2Fcss%3Ffamily%3DArchitects%2BDaughter;" vertex="1" parent="1">
          <mxGeometry x="955.0438756855576" y="584.3396226415095" width="67.78793418647166" height="73.9622641509434" as="geometry" />
        </mxCell>
        <mxCell id="RjY1EiUsMFYyaQ78bKSz-145" style="edgeStyle=none;rounded=1;sketch=1;hachureGap=4;jiggle=2;curveFitting=1;orthogonalLoop=1;jettySize=auto;html=1;entryX=0;entryY=0.75;entryDx=0;entryDy=0;fontFamily=Architects Daughter;fontSource=https%3A%2F%2Ffonts.googleapis.com%2Fcss%3Ffamily%3DArchitects%2BDaughter;fontSize=16;startSize=8;endSize=8;" edge="1" parent="1" source="RjY1EiUsMFYyaQ78bKSz-114" target="RjY1EiUsMFYyaQ78bKSz-103">
          <mxGeometry relative="1" as="geometry">
            <Array as="points">
              <mxPoint x="1055.219378427788" y="1038.679245283019" />
            </Array>
          </mxGeometry>
        </mxCell>
        <mxCell id="RjY1EiUsMFYyaQ78bKSz-114" value="BMI &amp;gt; 30" style="rhombus;whiteSpace=wrap;html=1;fontSize=11;fontFamily=Architects Daughter;sketch=1;hachureGap=4;jiggle=2;curveFitting=1;fontSource=https%3A%2F%2Ffonts.googleapis.com%2Fcss%3Ffamily%3DArchitects%2BDaughter;" vertex="1" parent="1">
          <mxGeometry x="1022.8318098720292" y="545.8490566037735" width="67.78793418647166" height="73.9622641509434" as="geometry" />
        </mxCell>
        <mxCell id="RjY1EiUsMFYyaQ78bKSz-116" value="" style="edgeStyle=none;curved=1;rounded=0;sketch=1;hachureGap=4;jiggle=2;curveFitting=1;orthogonalLoop=1;jettySize=auto;html=1;fontFamily=Architects Daughter;fontSource=https%3A%2F%2Ffonts.googleapis.com%2Fcss%3Ffamily%3DArchitects%2BDaughter;fontSize=11;startSize=8;endSize=8;" edge="1" parent="1" target="RjY1EiUsMFYyaQ78bKSz-124">
          <mxGeometry relative="1" as="geometry">
            <mxPoint x="1181.0036563071299" y="537.5471698113208" as="sourcePoint" />
          </mxGeometry>
        </mxCell>
        <mxCell id="RjY1EiUsMFYyaQ78bKSz-117" value="" style="edgeStyle=none;curved=1;rounded=0;sketch=1;hachureGap=4;jiggle=2;curveFitting=1;orthogonalLoop=1;jettySize=auto;html=1;fontFamily=Architects Daughter;fontSource=https%3A%2F%2Ffonts.googleapis.com%2Fcss%3Ffamily%3DArchitects%2BDaughter;fontSize=11;startSize=8;endSize=8;" edge="1" parent="1" target="RjY1EiUsMFYyaQ78bKSz-125">
          <mxGeometry relative="1" as="geometry">
            <mxPoint x="1197.5740402193783" y="552.6415094339623" as="sourcePoint" />
          </mxGeometry>
        </mxCell>
        <mxCell id="RjY1EiUsMFYyaQ78bKSz-118" value="" style="edgeStyle=none;curved=1;rounded=0;sketch=1;hachureGap=4;jiggle=2;curveFitting=1;orthogonalLoop=1;jettySize=auto;html=1;fontFamily=Architects Daughter;fontSource=https%3A%2F%2Ffonts.googleapis.com%2Fcss%3Ffamily%3DArchitects%2BDaughter;fontSize=11;startSize=8;endSize=8;" edge="1" parent="1" target="RjY1EiUsMFYyaQ78bKSz-125">
          <mxGeometry relative="1" as="geometry">
            <mxPoint x="1197.5740402193783" y="552.6415094339623" as="sourcePoint" />
          </mxGeometry>
        </mxCell>
        <mxCell id="RjY1EiUsMFYyaQ78bKSz-119" value="" style="edgeStyle=none;curved=1;rounded=0;sketch=1;hachureGap=4;jiggle=2;curveFitting=1;orthogonalLoop=1;jettySize=auto;html=1;fontFamily=Architects Daughter;fontSource=https%3A%2F%2Ffonts.googleapis.com%2Fcss%3Ffamily%3DArchitects%2BDaughter;fontSize=11;startSize=8;endSize=8;" edge="1" parent="1" target="RjY1EiUsMFYyaQ78bKSz-125">
          <mxGeometry relative="1" as="geometry">
            <mxPoint x="1197.5740402193783" y="552.6415094339623" as="sourcePoint" />
          </mxGeometry>
        </mxCell>
        <mxCell id="RjY1EiUsMFYyaQ78bKSz-120" value="" style="edgeStyle=none;curved=1;rounded=0;sketch=1;hachureGap=4;jiggle=2;curveFitting=1;orthogonalLoop=1;jettySize=auto;html=1;fontFamily=Architects Daughter;fontSource=https%3A%2F%2Ffonts.googleapis.com%2Fcss%3Ffamily%3DArchitects%2BDaughter;fontSize=11;startSize=8;endSize=8;" edge="1" parent="1" target="RjY1EiUsMFYyaQ78bKSz-126">
          <mxGeometry relative="1" as="geometry">
            <mxPoint x="1218.6636197440585" y="561.6981132075472" as="sourcePoint" />
          </mxGeometry>
        </mxCell>
        <mxCell id="RjY1EiUsMFYyaQ78bKSz-121" value="" style="edgeStyle=none;curved=1;rounded=0;sketch=1;hachureGap=4;jiggle=2;curveFitting=1;orthogonalLoop=1;jettySize=auto;html=1;fontFamily=Architects Daughter;fontSource=https%3A%2F%2Ffonts.googleapis.com%2Fcss%3Ffamily%3DArchitects%2BDaughter;fontSize=11;startSize=8;endSize=8;" edge="1" parent="1" target="RjY1EiUsMFYyaQ78bKSz-126">
          <mxGeometry relative="1" as="geometry">
            <mxPoint x="1218.6636197440585" y="561.6981132075472" as="sourcePoint" />
          </mxGeometry>
        </mxCell>
        <mxCell id="RjY1EiUsMFYyaQ78bKSz-122" value="" style="edgeStyle=none;curved=1;rounded=0;sketch=1;hachureGap=4;jiggle=2;curveFitting=1;orthogonalLoop=1;jettySize=auto;html=1;fontFamily=Architects Daughter;fontSource=https%3A%2F%2Ffonts.googleapis.com%2Fcss%3Ffamily%3DArchitects%2BDaughter;fontSize=11;startSize=8;endSize=8;" edge="1" parent="1" target="RjY1EiUsMFYyaQ78bKSz-126">
          <mxGeometry relative="1" as="geometry">
            <mxPoint x="1218.6636197440585" y="561.6981132075472" as="sourcePoint" />
          </mxGeometry>
        </mxCell>
        <mxCell id="RjY1EiUsMFYyaQ78bKSz-123" value="" style="edgeStyle=none;curved=1;rounded=0;sketch=1;hachureGap=4;jiggle=2;curveFitting=1;orthogonalLoop=1;jettySize=auto;html=1;fontFamily=Architects Daughter;fontSource=https%3A%2F%2Ffonts.googleapis.com%2Fcss%3Ffamily%3DArchitects%2BDaughter;fontSize=11;startSize=8;endSize=8;" edge="1" parent="1" target="RjY1EiUsMFYyaQ78bKSz-127">
          <mxGeometry relative="1" as="geometry">
            <mxPoint x="1238.2468007312614" y="544.3396226415095" as="sourcePoint" />
          </mxGeometry>
        </mxCell>
        <mxCell id="RjY1EiUsMFYyaQ78bKSz-161" style="edgeStyle=none;rounded=1;sketch=1;hachureGap=4;jiggle=2;curveFitting=1;orthogonalLoop=1;jettySize=auto;html=1;entryX=0;entryY=0.5;entryDx=0;entryDy=0;fontFamily=Architects Daughter;fontSource=https%3A%2F%2Ffonts.googleapis.com%2Fcss%3Ffamily%3DArchitects%2BDaughter;fontSize=16;startSize=8;endSize=8;" edge="1" parent="1" source="RjY1EiUsMFYyaQ78bKSz-124" target="RjY1EiUsMFYyaQ78bKSz-101">
          <mxGeometry relative="1" as="geometry">
            <Array as="points">
              <mxPoint x="1130.5393053016453" y="829.6226415094341" />
            </Array>
          </mxGeometry>
        </mxCell>
        <mxCell id="RjY1EiUsMFYyaQ78bKSz-124" value="BMI &amp;lt; 22" style="rhombus;whiteSpace=wrap;html=1;fontSize=11;fontFamily=Architects Daughter;sketch=1;hachureGap=4;jiggle=2;curveFitting=1;fontSource=https%3A%2F%2Ffonts.googleapis.com%2Fcss%3Ffamily%3DArchitects%2BDaughter;" vertex="1" parent="1">
          <mxGeometry x="1100.4113345521023" y="551.1320754716982" width="67.78793418647166" height="73.9622641509434" as="geometry" />
        </mxCell>
        <mxCell id="RjY1EiUsMFYyaQ78bKSz-162" style="edgeStyle=none;rounded=1;sketch=1;hachureGap=4;jiggle=2;curveFitting=1;orthogonalLoop=1;jettySize=auto;html=1;entryX=0;entryY=0.75;entryDx=0;entryDy=0;fontFamily=Architects Daughter;fontSource=https%3A%2F%2Ffonts.googleapis.com%2Fcss%3Ffamily%3DArchitects%2BDaughter;fontSize=16;startSize=8;endSize=8;" edge="1" parent="1" source="RjY1EiUsMFYyaQ78bKSz-125" target="RjY1EiUsMFYyaQ78bKSz-102">
          <mxGeometry relative="1" as="geometry">
            <Array as="points">
              <mxPoint x="1198.327239488117" y="791.8867924528303" />
              <mxPoint x="1130.5393053016453" y="799.433962264151" />
              <mxPoint x="1130.5393053016453" y="905.0943396226415" />
            </Array>
          </mxGeometry>
        </mxCell>
        <mxCell id="RjY1EiUsMFYyaQ78bKSz-125" value="BMI 26.9-22" style="rhombus;whiteSpace=wrap;html=1;fontSize=11;fontFamily=Architects Daughter;sketch=1;hachureGap=4;jiggle=2;curveFitting=1;fontSource=https%3A%2F%2Ffonts.googleapis.com%2Fcss%3Ffamily%3DArchitects%2BDaughter;" vertex="1" parent="1">
          <mxGeometry x="1168.1992687385741" y="594.9056603773586" width="67.78793418647166" height="73.9622641509434" as="geometry" />
        </mxCell>
        <mxCell id="RjY1EiUsMFYyaQ78bKSz-163" style="edgeStyle=none;rounded=1;sketch=1;hachureGap=4;jiggle=2;curveFitting=1;orthogonalLoop=1;jettySize=auto;html=1;entryX=1;entryY=0.5;entryDx=0;entryDy=0;fontFamily=Architects Daughter;fontSource=https%3A%2F%2Ffonts.googleapis.com%2Fcss%3Ffamily%3DArchitects%2BDaughter;fontSize=16;startSize=8;endSize=8;" edge="1" parent="1" source="RjY1EiUsMFYyaQ78bKSz-126" target="RjY1EiUsMFYyaQ78bKSz-104">
          <mxGeometry relative="1" as="geometry">
            <Array as="points">
              <mxPoint x="1277.4131627056672" y="958.679245283019" />
            </Array>
          </mxGeometry>
        </mxCell>
        <mxCell id="RjY1EiUsMFYyaQ78bKSz-126" value="BMI 27-29.9" style="rhombus;whiteSpace=wrap;html=1;fontSize=11;fontFamily=Architects Daughter;sketch=1;hachureGap=4;jiggle=2;curveFitting=1;fontSource=https%3A%2F%2Ffonts.googleapis.com%2Fcss%3Ffamily%3DArchitects%2BDaughter;" vertex="1" parent="1">
          <mxGeometry x="1243.5191956124313" y="582.0754716981132" width="67.78793418647166" height="73.9622641509434" as="geometry" />
        </mxCell>
        <mxCell id="RjY1EiUsMFYyaQ78bKSz-165" style="edgeStyle=none;rounded=1;sketch=1;hachureGap=4;jiggle=2;curveFitting=1;orthogonalLoop=1;jettySize=auto;html=1;entryX=1;entryY=0.75;entryDx=0;entryDy=0;fontFamily=Architects Daughter;fontSource=https%3A%2F%2Ffonts.googleapis.com%2Fcss%3Ffamily%3DArchitects%2BDaughter;fontSize=16;startSize=8;endSize=8;" edge="1" parent="1" source="RjY1EiUsMFYyaQ78bKSz-127" target="RjY1EiUsMFYyaQ78bKSz-103">
          <mxGeometry relative="1" as="geometry">
            <Array as="points">
              <mxPoint x="1322.6051188299816" y="1038.679245283019" />
            </Array>
          </mxGeometry>
        </mxCell>
        <mxCell id="RjY1EiUsMFYyaQ78bKSz-127" value="BMI &amp;gt; 30" style="rhombus;whiteSpace=wrap;html=1;fontSize=11;fontFamily=Architects Daughter;sketch=1;hachureGap=4;jiggle=2;curveFitting=1;fontSource=https%3A%2F%2Ffonts.googleapis.com%2Fcss%3Ffamily%3DArchitects%2BDaughter;" vertex="1" parent="1">
          <mxGeometry x="1288.711151736746" y="521.6981132075472" width="67.78793418647166" height="73.9622641509434" as="geometry" />
        </mxCell>
        <mxCell id="RjY1EiUsMFYyaQ78bKSz-129" value="" style="edgeStyle=none;curved=1;rounded=0;sketch=1;hachureGap=4;jiggle=2;curveFitting=1;orthogonalLoop=1;jettySize=auto;html=1;fontFamily=Architects Daughter;fontSource=https%3A%2F%2Ffonts.googleapis.com%2Fcss%3Ffamily%3DArchitects%2BDaughter;fontSize=11;startSize=8;endSize=8;" edge="1" parent="1" target="RjY1EiUsMFYyaQ78bKSz-137">
          <mxGeometry relative="1" as="geometry">
            <mxPoint x="1498.0903382370043" y="531.4315226159326" as="sourcePoint" />
          </mxGeometry>
        </mxCell>
        <mxCell id="RjY1EiUsMFYyaQ78bKSz-130" value="" style="edgeStyle=none;curved=1;rounded=0;sketch=1;hachureGap=4;jiggle=2;curveFitting=1;orthogonalLoop=1;jettySize=auto;html=1;fontFamily=Architects Daughter;fontSource=https%3A%2F%2Ffonts.googleapis.com%2Fcss%3Ffamily%3DArchitects%2BDaughter;fontSize=11;startSize=8;endSize=8;" edge="1" parent="1" target="RjY1EiUsMFYyaQ78bKSz-138">
          <mxGeometry relative="1" as="geometry">
            <mxPoint x="1514.3780215315862" y="546.2683438155137" as="sourcePoint" />
          </mxGeometry>
        </mxCell>
        <mxCell id="RjY1EiUsMFYyaQ78bKSz-131" value="" style="edgeStyle=none;curved=1;rounded=0;sketch=1;hachureGap=4;jiggle=2;curveFitting=1;orthogonalLoop=1;jettySize=auto;html=1;fontFamily=Architects Daughter;fontSource=https%3A%2F%2Ffonts.googleapis.com%2Fcss%3Ffamily%3DArchitects%2BDaughter;fontSize=11;startSize=8;endSize=8;" edge="1" parent="1" target="RjY1EiUsMFYyaQ78bKSz-138">
          <mxGeometry relative="1" as="geometry">
            <mxPoint x="1514.3780215315862" y="546.2683438155137" as="sourcePoint" />
          </mxGeometry>
        </mxCell>
        <mxCell id="RjY1EiUsMFYyaQ78bKSz-132" value="" style="edgeStyle=none;curved=1;rounded=0;sketch=1;hachureGap=4;jiggle=2;curveFitting=1;orthogonalLoop=1;jettySize=auto;html=1;fontFamily=Architects Daughter;fontSource=https%3A%2F%2Ffonts.googleapis.com%2Fcss%3Ffamily%3DArchitects%2BDaughter;fontSize=11;startSize=8;endSize=8;" edge="1" parent="1" target="RjY1EiUsMFYyaQ78bKSz-138">
          <mxGeometry relative="1" as="geometry">
            <mxPoint x="1514.3780215315862" y="546.2683438155137" as="sourcePoint" />
          </mxGeometry>
        </mxCell>
        <mxCell id="RjY1EiUsMFYyaQ78bKSz-133" value="" style="edgeStyle=none;curved=1;rounded=0;sketch=1;hachureGap=4;jiggle=2;curveFitting=1;orthogonalLoop=1;jettySize=auto;html=1;fontFamily=Architects Daughter;fontSource=https%3A%2F%2Ffonts.googleapis.com%2Fcss%3Ffamily%3DArchitects%2BDaughter;fontSize=11;startSize=8;endSize=8;" edge="1" parent="1" target="RjY1EiUsMFYyaQ78bKSz-139">
          <mxGeometry relative="1" as="geometry">
            <mxPoint x="1535.938901183489" y="555.9781529294937" as="sourcePoint" />
          </mxGeometry>
        </mxCell>
        <mxCell id="RjY1EiUsMFYyaQ78bKSz-134" value="" style="edgeStyle=none;curved=1;rounded=0;sketch=1;hachureGap=4;jiggle=2;curveFitting=1;orthogonalLoop=1;jettySize=auto;html=1;fontFamily=Architects Daughter;fontSource=https%3A%2F%2Ffonts.googleapis.com%2Fcss%3Ffamily%3DArchitects%2BDaughter;fontSize=11;startSize=8;endSize=8;" edge="1" parent="1" target="RjY1EiUsMFYyaQ78bKSz-139">
          <mxGeometry relative="1" as="geometry">
            <mxPoint x="1535.938901183489" y="555.9781529294937" as="sourcePoint" />
          </mxGeometry>
        </mxCell>
        <mxCell id="RjY1EiUsMFYyaQ78bKSz-135" value="" style="edgeStyle=none;curved=1;rounded=0;sketch=1;hachureGap=4;jiggle=2;curveFitting=1;orthogonalLoop=1;jettySize=auto;html=1;fontFamily=Architects Daughter;fontSource=https%3A%2F%2Ffonts.googleapis.com%2Fcss%3Ffamily%3DArchitects%2BDaughter;fontSize=11;startSize=8;endSize=8;" edge="1" parent="1" target="RjY1EiUsMFYyaQ78bKSz-139">
          <mxGeometry relative="1" as="geometry">
            <mxPoint x="1535.938901183489" y="555.9781529294937" as="sourcePoint" />
          </mxGeometry>
        </mxCell>
        <mxCell id="RjY1EiUsMFYyaQ78bKSz-136" value="" style="edgeStyle=none;curved=1;rounded=0;sketch=1;hachureGap=4;jiggle=2;curveFitting=1;orthogonalLoop=1;jettySize=auto;html=1;fontFamily=Architects Daughter;fontSource=https%3A%2F%2Ffonts.googleapis.com%2Fcss%3Ffamily%3DArchitects%2BDaughter;fontSize=11;startSize=8;endSize=8;" edge="1" parent="1" target="RjY1EiUsMFYyaQ78bKSz-140">
          <mxGeometry relative="1" as="geometry">
            <mxPoint x="1555.0005192388826" y="538.6144914591939" as="sourcePoint" />
          </mxGeometry>
        </mxCell>
        <mxCell id="RjY1EiUsMFYyaQ78bKSz-166" style="edgeStyle=none;rounded=1;sketch=1;hachureGap=4;jiggle=2;curveFitting=1;orthogonalLoop=1;jettySize=auto;html=1;entryX=1;entryY=0.5;entryDx=0;entryDy=0;fontFamily=Architects Daughter;fontSource=https%3A%2F%2Ffonts.googleapis.com%2Fcss%3Ffamily%3DArchitects%2BDaughter;fontSize=16;startSize=8;endSize=8;" edge="1" parent="1" source="RjY1EiUsMFYyaQ78bKSz-137" target="RjY1EiUsMFYyaQ78bKSz-101">
          <mxGeometry relative="1" as="geometry">
            <Array as="points">
              <mxPoint x="1421.2742230347349" y="829.6226415094341" />
            </Array>
          </mxGeometry>
        </mxCell>
        <mxCell id="RjY1EiUsMFYyaQ78bKSz-137" value="BMI =&amp;lt; 23" style="rhombus;whiteSpace=wrap;html=1;fontSize=11;fontFamily=Architects Daughter;sketch=1;hachureGap=4;jiggle=2;curveFitting=1;fontSource=https%3A%2F%2Ffonts.googleapis.com%2Fcss%3Ffamily%3DArchitects%2BDaughter;" vertex="1" parent="1">
          <mxGeometry x="1387.380255941499" y="521.6981132075472" width="67.78793418647166" height="73.9622641509434" as="geometry" />
        </mxCell>
        <mxCell id="RjY1EiUsMFYyaQ78bKSz-167" style="edgeStyle=none;rounded=1;sketch=1;hachureGap=4;jiggle=2;curveFitting=1;orthogonalLoop=1;jettySize=auto;html=1;entryX=1;entryY=0.75;entryDx=0;entryDy=0;fontFamily=Architects Daughter;fontSource=https%3A%2F%2Ffonts.googleapis.com%2Fcss%3Ffamily%3DArchitects%2BDaughter;fontSize=16;startSize=8;endSize=8;" edge="1" parent="1" source="RjY1EiUsMFYyaQ78bKSz-138" target="RjY1EiUsMFYyaQ78bKSz-102">
          <mxGeometry relative="1" as="geometry">
            <Array as="points">
              <mxPoint x="1476.257769652651" y="905.0943396226415" />
            </Array>
          </mxGeometry>
        </mxCell>
        <mxCell id="RjY1EiUsMFYyaQ78bKSz-138" value="BMI 23.01-27.9" style="rhombus;whiteSpace=wrap;html=1;fontSize=11;fontFamily=Architects Daughter;sketch=1;hachureGap=4;jiggle=2;curveFitting=1;fontSource=https%3A%2F%2Ffonts.googleapis.com%2Fcss%3Ffamily%3DArchitects%2BDaughter;" vertex="1" parent="1">
          <mxGeometry x="1442.363802559415" y="576.0377358490566" width="67.78793418647166" height="73.9622641509434" as="geometry" />
        </mxCell>
        <mxCell id="RjY1EiUsMFYyaQ78bKSz-168" style="edgeStyle=none;rounded=1;sketch=1;hachureGap=4;jiggle=2;curveFitting=1;orthogonalLoop=1;jettySize=auto;html=1;entryX=1;entryY=0.75;entryDx=0;entryDy=0;fontFamily=Architects Daughter;fontSource=https%3A%2F%2Ffonts.googleapis.com%2Fcss%3Ffamily%3DArchitects%2BDaughter;fontSize=16;startSize=8;endSize=8;" edge="1" parent="1" source="RjY1EiUsMFYyaQ78bKSz-139" target="RjY1EiUsMFYyaQ78bKSz-104">
          <mxGeometry relative="1" as="geometry">
            <Array as="points">
              <mxPoint x="1549.3180987202925" y="970.0000000000001" />
            </Array>
          </mxGeometry>
        </mxCell>
        <mxCell id="RjY1EiUsMFYyaQ78bKSz-139" value="BMI 28-29.9" style="rhombus;whiteSpace=wrap;html=1;fontSize=11;fontFamily=Architects Daughter;sketch=1;hachureGap=4;jiggle=2;curveFitting=1;fontSource=https%3A%2F%2Ffonts.googleapis.com%2Fcss%3Ffamily%3DArchitects%2BDaughter;" vertex="1" parent="1">
          <mxGeometry x="1515.4241316270568" y="583.5849056603774" width="67.78793418647166" height="73.9622641509434" as="geometry" />
        </mxCell>
        <mxCell id="RjY1EiUsMFYyaQ78bKSz-169" style="edgeStyle=none;rounded=1;sketch=1;hachureGap=4;jiggle=2;curveFitting=1;orthogonalLoop=1;jettySize=auto;html=1;entryX=1;entryY=0.75;entryDx=0;entryDy=0;fontFamily=Architects Daughter;fontSource=https%3A%2F%2Ffonts.googleapis.com%2Fcss%3Ffamily%3DArchitects%2BDaughter;fontSize=16;startSize=8;endSize=8;" edge="1" parent="1" source="RjY1EiUsMFYyaQ78bKSz-140" target="RjY1EiUsMFYyaQ78bKSz-103">
          <mxGeometry relative="1" as="geometry">
            <Array as="points">
              <mxPoint x="1612.5868372943328" y="1038.679245283019" />
            </Array>
          </mxGeometry>
        </mxCell>
        <mxCell id="RjY1EiUsMFYyaQ78bKSz-140" value="BMI &amp;gt; 30" style="rhombus;whiteSpace=wrap;html=1;fontSize=11;fontFamily=Architects Daughter;sketch=1;hachureGap=4;jiggle=2;curveFitting=1;fontSource=https%3A%2F%2Ffonts.googleapis.com%2Fcss%3Ffamily%3DArchitects%2BDaughter;" vertex="1" parent="1">
          <mxGeometry x="1583.2120658135282" y="545.0943396226415" width="67.78793418647166" height="73.9622641509434" as="geometry" />
        </mxCell>
      </root>
    </mxGraphModel>
  </diagram>
</mxfile>
